# xmcd CD database file
#
# Track frame offsets:
#	150
#	11860
#	22995
#	33527
#	43251
#	56125
#	69191
#	81368
#	90291
#	105961
#
# Disc length: 1570 seconds
#
# Revision: 0
# Processed by: cddbd v1.5.2PL0 Copyright (c) Steve Scherf et al.
# Submitted via: CDex 1.70beta2
#
DISCID=7506200a
DTITLE=Homer and Jethro - The Playboy Song
DYEAR=1969
DGENRE=Country
TTITLE0=Goodnight Irene
TTITLE1=After the Hangover's Over
TTITLE2=Jimmy Drinks Corn
TTITLE3=Rye Whiskey
TTITLE4=I Don't Give a Hoot
TTITLE5=Fractured Folk Song
TTITLE6=So Long
TTITLE7=The Funny Farm
TTITLE8=The Playboy Song
TTITLE9=Mama Don't Whip Little Buford
EXTD=YEAR: 1969
EXTT0=
EXTT1=
EXTT2=
EXTT3=
EXTT4=
EXTT5=
EXTT6=
EXTT7=
EXTT8=
EXTT9=
PLAYORDER=
